<?xml version="1.0" encoding="UTF-8"?>
<svg id="Layer_2" data-name="Layer 2" xmlns="http://www.w3.org/2000/svg" viewBox="0 0 927.82 941.59">
  <defs>
    <style>
      .cls-1 {
        fill: #ff3636;
      }
    </style>
  </defs>
  <g id="Layer_1-2" data-name="Layer 1">
    <path class="cls-1" d="M927.82,0h-426.25s-153.11,0-153.11,0c-73.03,0-135.29,12.97-186.77,38.9-51.48,25.95-89.96,61.49-115.49,106.63C20.69,190.7,7.92,240.99,7.92,296.43c0,62.6,17.38,118.5,52.14,167.66,34.77,49.19,86.02,84.06,153.77,104.62L0,941.59h254.75l192.71-355.44h51.39v355.44h428.98v-187.78h-398.62L927.82,174.37V0ZM501.57,432.93v-2.11l-139.91-6.96c-41.35,0-72.37-10.27-93.05-30.85-20.66-20.56-31.02-49.63-31.02-87.18s10.35-63.92,31.02-84.5c20.69-20.56,51.7-30.85,93.05-30.85l143.11-2.71h164.34l-167.54,245.17Z"/>
  </g>
</svg>