<?xml version="1.0" encoding="UTF-8"?>
<svg id="Layer_2" data-name="Layer 2" xmlns="http://www.w3.org/2000/svg" viewBox="0 0 819.68 538.94">
  <defs>
    <style>
      .cls-1 {
        font-size: 65.42px;
      }

      .cls-1, .cls-2 {
        fill: #fff;
        font-family: Poppins-Bold, Poppins;
        font-weight: 700;
      }

      .cls-3 {
        fill: #ff3636;
      }

      .cls-2 {
        font-size: 369.52px;
      }
    </style>
  </defs>
  <g id="Layer_1-2" data-name="Layer 1">
    <g>
      <text class="cls-2" transform="translate(249.53 315.01)"><tspan x="0" y="0">RIZ</tspan></text>
      <path class="cls-3" d="M257.23,57.76h-118.18s-42.45,0-42.45,0c-20.25,0-37.51,3.6-51.78,10.78-14.27,7.19-24.94,17.05-32.02,29.56-7.07,12.52-10.61,26.47-10.61,41.84,0,17.36,4.82,32.85,14.45,46.48,9.64,13.64,23.85,23.31,42.63,29.01L0,318.81h70.63l53.43-98.55h14.25v98.55h118.93v-52.06h-110.52l110.52-160.65v-48.34ZM139.06,177.79v-.59l-38.79-1.93c-11.46,0-20.06-2.85-25.8-8.55-5.73-5.7-8.6-13.76-8.6-24.17s2.87-17.72,8.6-23.43c5.74-5.7,14.33-8.55,25.8-8.55l39.68-.75h45.56l-46.45,67.97Z"/>
      <text class="cls-1" transform="translate(13.07 382.26)"><tspan x="0" y="0">PROJECT MANAGEMENT</tspan></text>
    </g>
  </g>
</svg>